<svg viewBox="0 0 18 18" fill="none" xmlns="http://www.w3.org/2000/svg" aria-hidden="true" class="Box-sc-g760pt-0 IconBase-sc-1liaym9-0 LanguageSwitcher__SwitcherIcon-sc-1n6vypn-9 iwmYaQ" display="block"><path fill-rule="evenodd" clip-rule="evenodd" d="M18 9C18 13.9706 13.9706 18 9 18C4.02944 18 0 13.9706 0 9C0 4.02944 4.02944 0 9 0C13.9706 0 18 4.02944 18 9ZM4.59283 10.5C4.53156 10.0086 4.5 9.50799 4.5 9C4.5 8.49201 4.53157 7.99139 4.59285 7.5H1.65003C1.55165 7.98467 1.5 8.4863 1.5 9C1.5 9.5137 1.55165 10.0153 1.65003 10.5H4.59283ZM4.87804 12H2.12407C3.0072 14.0213 4.75547 15.578 6.90081 16.2023C5.97117 14.9652 5.27509 13.5426 4.87804 12ZM6.43482 12H11.5652C11.0717 13.6582 10.1796 15.1447 9 16.3485C7.82042 15.1447 6.92832 13.6582 6.43482 12ZM11.8937 10.5H6.10634C6.03627 10.0101 6 9.50928 6 9C6 8.49072 6.03627 7.98991 6.10634 7.5H11.8937C11.9637 7.98991 12 8.49072 12 9C12 9.50928 11.9637 10.0101 11.8937 10.5ZM13.4072 10.5C13.4684 10.0086 13.5 9.50799 13.5 9C13.5 8.49201 13.4684 7.99139 13.4072 7.5H16.35C16.4484 7.98467 16.5 8.4863 16.5 9C16.5 9.5137 16.4484 10.0153 16.35 10.5H13.4072ZM13.122 12H15.8759C14.9928 14.0213 13.2445 15.578 11.0992 16.2023C12.0288 14.9652 12.7249 13.5426 13.122 12ZM9 1.65153C7.82042 2.85528 6.92832 4.34181 6.43482 6H11.5652C11.0717 4.34181 10.1796 2.85528 9 1.65153ZM11.0992 1.79773C12.0288 3.03479 12.7249 4.45737 13.1219 6H15.8759C14.9928 3.97873 13.2445 2.42195 11.0992 1.79773ZM2.12407 6H4.87806C5.27511 4.45737 5.9712 3.03479 6.90083 1.79773C4.75548 2.42195 3.0072 3.97873 2.12407 6Z" fill="currentColor"></path></svg>